<svg width="260" height="260" viewBox="0 0 260 260" fill="none" xmlns="http://www.w3.org/2000/svg">
<circle cx="130" cy="130" r="130" fill="#00A6A6"/>
<path d="M63.12 163.24C73.28 155.08 81.24 148.4 87 143.2C92.76 137.92 97.6 132.44 101.52 126.76C105.52 121 107.52 115.36 107.52 109.84C107.52 104.64 106.24 100.56 103.68 97.6C101.2 94.56 97.16 93.04 91.56 93.04C86.12 93.04 81.88 94.76 78.84 98.2C75.88 101.56 74.28 106.08 74.04 111.76H63.48C63.8 102.8 66.52 95.88 71.64 91C76.76 86.12 83.36 83.68 91.44 83.68C99.68 83.68 106.2 85.96 111 90.52C115.88 95.08 118.32 101.36 118.32 109.36C118.32 116 116.32 122.48 112.32 128.8C108.4 135.04 103.92 140.56 98.88 145.36C93.84 150.08 87.4 155.6 79.56 161.92H120.84V171.04H63.12V163.24ZM133.463 127.72C133.463 113.96 135.703 103.24 140.183 95.56C144.663 87.8 152.503 83.92 163.703 83.92C174.823 83.92 182.623 87.8 187.103 95.56C191.583 103.24 193.823 113.96 193.823 127.72C193.823 141.72 191.583 152.6 187.103 160.36C182.623 168.12 174.823 172 163.703 172C152.503 172 144.663 168.12 140.183 160.36C135.703 152.6 133.463 141.72 133.463 127.72ZM183.023 127.72C183.023 120.76 182.543 114.88 181.583 110.08C180.703 105.2 178.823 101.28 175.943 98.32C173.143 95.36 169.063 93.88 163.703 93.88C158.263 93.88 154.103 95.36 151.223 98.32C148.423 101.28 146.543 105.2 145.583 110.08C144.703 114.88 144.263 120.76 144.263 127.72C144.263 134.92 144.703 140.96 145.583 145.84C146.543 150.72 148.423 154.64 151.223 157.6C154.103 160.56 158.263 162.04 163.703 162.04C169.063 162.04 173.143 160.56 175.943 157.6C178.823 154.64 180.703 150.72 181.583 145.84C182.543 140.96 183.023 134.92 183.023 127.72Z" fill="black"/>
</svg>
