<svg width="260" height="260" viewBox="0 0 260 260" fill="none" xmlns="http://www.w3.org/2000/svg">
<circle cx="130" cy="130" r="130" fill="#F49F0A"/>
<path d="M19.04 106.8V100.16H34.08V158H26.72V106.8H19.04ZM46.585 128.48C46.585 119.307 48.0783 112.16 51.065 107.04C54.0517 101.867 59.2783 99.28 66.745 99.28C74.1583 99.28 79.3583 101.867 82.345 107.04C85.3317 112.16 86.825 119.307 86.825 128.48C86.825 137.813 85.3317 145.067 82.345 150.24C79.3583 155.413 74.1583 158 66.745 158C59.2783 158 54.0517 155.413 51.065 150.24C48.0783 145.067 46.585 137.813 46.585 128.48ZM79.625 128.48C79.625 123.84 79.305 119.92 78.665 116.72C78.0783 113.467 76.825 110.853 74.905 108.88C73.0383 106.907 70.3183 105.92 66.745 105.92C63.1183 105.92 60.345 106.907 58.425 108.88C56.5583 110.853 55.305 113.467 54.665 116.72C54.0783 119.92 53.785 123.84 53.785 128.48C53.785 133.28 54.0783 137.307 54.665 140.56C55.305 143.813 56.5583 146.427 58.425 148.4C60.345 150.373 63.1183 151.36 66.745 151.36C70.3183 151.36 73.0383 150.373 74.905 148.4C76.825 146.427 78.0783 143.813 78.665 140.56C79.305 137.307 79.625 133.28 79.625 128.48ZM96.8194 128.48C96.8194 119.307 98.3127 112.16 101.299 107.04C104.286 101.867 109.513 99.28 116.979 99.28C124.393 99.28 129.593 101.867 132.579 107.04C135.566 112.16 137.059 119.307 137.059 128.48C137.059 137.813 135.566 145.067 132.579 150.24C129.593 155.413 124.393 158 116.979 158C109.513 158 104.286 155.413 101.299 150.24C98.3127 145.067 96.8194 137.813 96.8194 128.48ZM129.859 128.48C129.859 123.84 129.539 119.92 128.899 116.72C128.313 113.467 127.059 110.853 125.139 108.88C123.273 106.907 120.553 105.92 116.979 105.92C113.353 105.92 110.579 106.907 108.659 108.88C106.793 110.853 105.539 113.467 104.899 116.72C104.313 119.92 104.019 123.84 104.019 128.48C104.019 133.28 104.313 137.307 104.899 140.56C105.539 143.813 106.793 146.427 108.659 148.4C110.579 150.373 113.353 151.36 116.979 151.36C120.553 151.36 123.273 150.373 125.139 148.4C127.059 146.427 128.313 143.813 128.899 140.56C129.539 137.307 129.859 133.28 129.859 128.48ZM147.054 128.48C147.054 119.307 148.547 112.16 151.534 107.04C154.52 101.867 159.747 99.28 167.214 99.28C174.627 99.28 179.827 101.867 182.814 107.04C185.8 112.16 187.294 119.307 187.294 128.48C187.294 137.813 185.8 145.067 182.814 150.24C179.827 155.413 174.627 158 167.214 158C159.747 158 154.52 155.413 151.534 150.24C148.547 145.067 147.054 137.813 147.054 128.48ZM180.094 128.48C180.094 123.84 179.774 119.92 179.134 116.72C178.547 113.467 177.294 110.853 175.374 108.88C173.507 106.907 170.787 105.92 167.214 105.92C163.587 105.92 160.814 106.907 158.894 108.88C157.027 110.853 155.774 113.467 155.134 116.72C154.547 119.92 154.254 123.84 154.254 128.48C154.254 133.28 154.547 137.307 155.134 140.56C155.774 143.813 157.027 146.427 158.894 148.4C160.814 150.373 163.587 151.36 167.214 151.36C170.787 151.36 173.507 150.373 175.374 148.4C177.294 146.427 178.547 143.813 179.134 140.56C179.774 137.307 180.094 133.28 180.094 128.48ZM197.288 128.48C197.288 119.307 198.781 112.16 201.768 107.04C204.755 101.867 209.981 99.28 217.448 99.28C224.861 99.28 230.061 101.867 233.048 107.04C236.035 112.16 237.528 119.307 237.528 128.48C237.528 137.813 236.035 145.067 233.048 150.24C230.061 155.413 224.861 158 217.448 158C209.981 158 204.755 155.413 201.768 150.24C198.781 145.067 197.288 137.813 197.288 128.48ZM230.328 128.48C230.328 123.84 230.008 119.92 229.368 116.72C228.781 113.467 227.528 110.853 225.608 108.88C223.741 106.907 221.021 105.92 217.448 105.92C213.821 105.92 211.048 106.907 209.128 108.88C207.261 110.853 206.008 113.467 205.368 116.72C204.781 119.92 204.488 123.84 204.488 128.48C204.488 133.28 204.781 137.307 205.368 140.56C206.008 143.813 207.261 146.427 209.128 148.4C211.048 150.373 213.821 151.36 217.448 151.36C221.021 151.36 223.741 150.373 225.608 148.4C227.528 146.427 228.781 143.813 229.368 140.56C230.008 137.307 230.328 133.28 230.328 128.48Z" fill="black"/>
</svg>
