<svg width="260" height="260" viewBox="0 0 260 260" fill="none" xmlns="http://www.w3.org/2000/svg">
<circle cx="130" cy="130" r="130" fill="#F49F0A"/>
<path d="M63.07 104.04H31.48V124.56C32.86 122.64 34.9 121.08 37.6 119.88C40.3 118.62 43.21 117.99 46.33 117.99C51.31 117.99 55.36 119.04 58.48 121.14C61.6 123.18 63.82 125.85 65.14 129.15C66.52 132.39 67.21 135.84 67.21 139.5C67.21 143.82 66.4 147.69 64.78 151.11C63.16 154.53 60.67 157.23 57.31 159.21C54.01 161.19 49.9 162.18 44.98 162.18C38.68 162.18 33.58 160.56 29.68 157.32C25.78 154.08 23.41 149.76 22.57 144.36H30.58C31.36 147.78 33.01 150.45 35.53 152.37C38.05 154.29 41.23 155.25 45.07 155.25C49.81 155.25 53.38 153.84 55.78 151.02C58.18 148.14 59.38 144.36 59.38 139.68C59.38 135 58.18 131.4 55.78 128.88C53.38 126.3 49.84 125.01 45.16 125.01C41.98 125.01 39.19 125.79 36.79 127.35C34.45 128.85 32.74 130.92 31.66 133.56H23.92V96.84H63.07V104.04ZM78.0937 128.79C78.0937 118.47 79.7737 110.43 83.1337 104.67C86.4937 98.85 92.3737 95.94 100.774 95.94C109.114 95.94 114.964 98.85 118.324 104.67C121.684 110.43 123.364 118.47 123.364 128.79C123.364 139.29 121.684 147.45 118.324 153.27C114.964 159.09 109.114 162 100.774 162C92.3737 162 86.4937 159.09 83.1337 153.27C79.7737 147.45 78.0937 139.29 78.0937 128.79ZM115.264 128.79C115.264 123.57 114.904 119.16 114.184 115.56C113.524 111.9 112.114 108.96 109.954 106.74C107.854 104.52 104.794 103.41 100.774 103.41C96.6937 103.41 93.5737 104.52 91.4137 106.74C89.3137 108.96 87.9037 111.9 87.1837 115.56C86.5237 119.16 86.1937 123.57 86.1937 128.79C86.1937 134.19 86.5237 138.72 87.1837 142.38C87.9037 146.04 89.3137 148.98 91.4137 151.2C93.5737 153.42 96.6937 154.53 100.774 154.53C104.794 154.53 107.854 153.42 109.954 151.2C112.114 148.98 113.524 146.04 114.184 142.38C114.904 138.72 115.264 134.19 115.264 128.79ZM134.607 128.79C134.607 118.47 136.287 110.43 139.647 104.67C143.007 98.85 148.887 95.94 157.287 95.94C165.627 95.94 171.477 98.85 174.837 104.67C178.197 110.43 179.877 118.47 179.877 128.79C179.877 139.29 178.197 147.45 174.837 153.27C171.477 159.09 165.627 162 157.287 162C148.887 162 143.007 159.09 139.647 153.27C136.287 147.45 134.607 139.29 134.607 128.79ZM171.777 128.79C171.777 123.57 171.417 119.16 170.697 115.56C170.037 111.9 168.627 108.96 166.467 106.74C164.367 104.52 161.307 103.41 157.287 103.41C153.207 103.41 150.087 104.52 147.927 106.74C145.827 108.96 144.417 111.9 143.697 115.56C143.037 119.16 142.707 123.57 142.707 128.79C142.707 134.19 143.037 138.72 143.697 142.38C144.417 146.04 145.827 148.98 147.927 151.2C150.087 153.42 153.207 154.53 157.287 154.53C161.307 154.53 164.367 153.42 166.467 151.2C168.627 148.98 170.037 146.04 170.697 142.38C171.417 138.72 171.777 134.19 171.777 128.79ZM191.121 128.79C191.121 118.47 192.801 110.43 196.161 104.67C199.521 98.85 205.401 95.94 213.801 95.94C222.141 95.94 227.991 98.85 231.351 104.67C234.711 110.43 236.391 118.47 236.391 128.79C236.391 139.29 234.711 147.45 231.351 153.27C227.991 159.09 222.141 162 213.801 162C205.401 162 199.521 159.09 196.161 153.27C192.801 147.45 191.121 139.29 191.121 128.79ZM228.291 128.79C228.291 123.57 227.931 119.16 227.211 115.56C226.551 111.9 225.141 108.96 222.981 106.74C220.881 104.52 217.821 103.41 213.801 103.41C209.721 103.41 206.601 104.52 204.441 106.74C202.341 108.96 200.931 111.9 200.211 115.56C199.551 119.16 199.221 123.57 199.221 128.79C199.221 134.19 199.551 138.72 200.211 142.38C200.931 146.04 202.341 148.98 204.441 151.2C206.601 153.42 209.721 154.53 213.801 154.53C217.821 154.53 220.881 153.42 222.981 151.2C225.141 148.98 226.551 146.04 227.211 142.38C227.931 138.72 228.291 134.19 228.291 128.79Z" fill="black"/>
</svg>
