<svg width="260" height="260" viewBox="0 0 260 260" fill="none" xmlns="http://www.w3.org/2000/svg">
<circle cx="130" cy="130" r="130" fill="#F08700"/>
<path d="M11.71 117.2V113.465H20.17V146H16.03V117.2H11.71ZM26.7091 142.715C30.5191 139.655 33.5041 137.15 35.6641 135.2C37.8241 133.22 39.6391 131.165 41.1091 129.035C42.6091 126.875 43.3591 124.76 43.3591 122.69C43.3591 120.74 42.8791 119.21 41.9191 118.1C40.9891 116.96 39.4741 116.39 37.3741 116.39C35.3341 116.39 33.7441 117.035 32.6041 118.325C31.4941 119.585 30.8941 121.28 30.8041 123.41H26.8441C26.9641 120.05 27.9841 117.455 29.9041 115.625C31.8241 113.795 34.2991 112.88 37.3291 112.88C40.4191 112.88 42.8641 113.735 44.6641 115.445C46.4941 117.155 47.4091 119.51 47.4091 122.51C47.4091 125 46.6591 127.43 45.1591 129.8C43.6891 132.14 42.0091 134.21 40.1191 136.01C38.2291 137.78 35.8141 139.85 32.8741 142.22H48.3541V145.64H26.7091V142.715ZM73.8329 117.02H58.0379V127.28C58.7279 126.32 59.7479 125.54 61.0979 124.94C62.4479 124.31 63.9029 123.995 65.4629 123.995C67.9529 123.995 69.9779 124.52 71.5379 125.57C73.0979 126.59 74.2079 127.925 74.8679 129.575C75.5579 131.195 75.9029 132.92 75.9029 134.75C75.9029 136.91 75.4979 138.845 74.6879 140.555C73.8779 142.265 72.6329 143.615 70.9529 144.605C69.3029 145.595 67.2479 146.09 64.7879 146.09C61.6379 146.09 59.0879 145.28 57.1379 143.66C55.1879 142.04 54.0029 139.88 53.5829 137.18H57.5879C57.9779 138.89 58.8029 140.225 60.0629 141.185C61.3229 142.145 62.9129 142.625 64.8329 142.625C67.2029 142.625 68.9879 141.92 70.1879 140.51C71.3879 139.07 71.9879 137.18 71.9879 134.84C71.9879 132.5 71.3879 130.7 70.1879 129.44C68.9879 128.15 67.2179 127.505 64.8779 127.505C63.2879 127.505 61.8929 127.895 60.6929 128.675C59.5229 129.425 58.6679 130.46 58.1279 131.78H54.2579V113.42H73.8329V117.02ZM81.3447 129.395C81.3447 124.235 82.1847 120.215 83.8647 117.335C85.5447 114.425 88.4847 112.97 92.6847 112.97C96.8547 112.97 99.7797 114.425 101.46 117.335C103.14 120.215 103.98 124.235 103.98 129.395C103.98 134.645 103.14 138.725 101.46 141.635C99.7797 144.545 96.8547 146 92.6847 146C88.4847 146 85.5447 144.545 83.8647 141.635C82.1847 138.725 81.3447 134.645 81.3447 129.395ZM99.9297 129.395C99.9297 126.785 99.7497 124.58 99.3897 122.78C99.0597 120.95 98.3547 119.48 97.2747 118.37C96.2247 117.26 94.6947 116.705 92.6847 116.705C90.6447 116.705 89.0847 117.26 88.0047 118.37C86.9547 119.48 86.2497 120.95 85.8897 122.78C85.5597 124.58 85.3947 126.785 85.3947 129.395C85.3947 132.095 85.5597 134.36 85.8897 136.19C86.2497 138.02 86.9547 139.49 88.0047 140.6C89.0847 141.71 90.6447 142.265 92.6847 142.265C94.6947 142.265 96.2247 141.71 97.2747 140.6C98.3547 139.49 99.0597 138.02 99.3897 136.19C99.7497 134.36 99.9297 132.095 99.9297 129.395ZM109.602 129.395C109.602 124.235 110.442 120.215 112.122 117.335C113.802 114.425 116.742 112.97 120.942 112.97C125.112 112.97 128.037 114.425 129.717 117.335C131.397 120.215 132.237 124.235 132.237 129.395C132.237 134.645 131.397 138.725 129.717 141.635C128.037 144.545 125.112 146 120.942 146C116.742 146 113.802 144.545 112.122 141.635C110.442 138.725 109.602 134.645 109.602 129.395ZM128.187 129.395C128.187 126.785 128.007 124.58 127.647 122.78C127.317 120.95 126.612 119.48 125.532 118.37C124.482 117.26 122.952 116.705 120.942 116.705C118.902 116.705 117.342 117.26 116.262 118.37C115.212 119.48 114.507 120.95 114.147 122.78C113.817 124.58 113.652 126.785 113.652 129.395C113.652 132.095 113.817 134.36 114.147 136.19C114.507 138.02 115.212 139.49 116.262 140.6C117.342 141.71 118.902 142.265 120.942 142.265C122.952 142.265 124.482 141.71 125.532 140.6C126.612 139.49 127.317 138.02 127.647 136.19C128.007 134.36 128.187 132.095 128.187 129.395ZM137.858 129.395C137.858 124.235 138.698 120.215 140.378 117.335C142.058 114.425 144.998 112.97 149.198 112.97C153.368 112.97 156.293 114.425 157.973 117.335C159.653 120.215 160.493 124.235 160.493 129.395C160.493 134.645 159.653 138.725 157.973 141.635C156.293 144.545 153.368 146 149.198 146C144.998 146 142.058 144.545 140.378 141.635C138.698 138.725 137.858 134.645 137.858 129.395ZM156.443 129.395C156.443 126.785 156.263 124.58 155.903 122.78C155.573 120.95 154.868 119.48 153.788 118.37C152.738 117.26 151.208 116.705 149.198 116.705C147.158 116.705 145.598 117.26 144.518 118.37C143.468 119.48 142.763 120.95 142.403 122.78C142.073 124.58 141.908 126.785 141.908 129.395C141.908 132.095 142.073 134.36 142.403 136.19C142.763 138.02 143.468 139.49 144.518 140.6C145.598 141.71 147.158 142.265 149.198 142.265C151.208 142.265 152.738 141.71 153.788 140.6C154.868 139.49 155.573 138.02 155.903 136.19C156.263 134.36 156.443 132.095 156.443 129.395ZM166.115 129.395C166.115 124.235 166.955 120.215 168.635 117.335C170.315 114.425 173.255 112.97 177.455 112.97C181.625 112.97 184.55 114.425 186.23 117.335C187.91 120.215 188.75 124.235 188.75 129.395C188.75 134.645 187.91 138.725 186.23 141.635C184.55 144.545 181.625 146 177.455 146C173.255 146 170.315 144.545 168.635 141.635C166.955 138.725 166.115 134.645 166.115 129.395ZM184.7 129.395C184.7 126.785 184.52 124.58 184.16 122.78C183.83 120.95 183.125 119.48 182.045 118.37C180.995 117.26 179.465 116.705 177.455 116.705C175.415 116.705 173.855 117.26 172.775 118.37C171.725 119.48 171.02 120.95 170.66 122.78C170.33 124.58 170.165 126.785 170.165 129.395C170.165 132.095 170.33 134.36 170.66 136.19C171.02 138.02 171.725 139.49 172.775 140.6C173.855 141.71 175.415 142.265 177.455 142.265C179.465 142.265 180.995 141.71 182.045 140.6C183.125 139.49 183.83 138.02 184.16 136.19C184.52 134.36 184.7 132.095 184.7 129.395ZM194.372 129.395C194.372 124.235 195.212 120.215 196.892 117.335C198.572 114.425 201.512 112.97 205.712 112.97C209.882 112.97 212.807 114.425 214.487 117.335C216.167 120.215 217.007 124.235 217.007 129.395C217.007 134.645 216.167 138.725 214.487 141.635C212.807 144.545 209.882 146 205.712 146C201.512 146 198.572 144.545 196.892 141.635C195.212 138.725 194.372 134.645 194.372 129.395ZM212.957 129.395C212.957 126.785 212.777 124.58 212.417 122.78C212.087 120.95 211.382 119.48 210.302 118.37C209.252 117.26 207.722 116.705 205.712 116.705C203.672 116.705 202.112 117.26 201.032 118.37C199.982 119.48 199.277 120.95 198.917 122.78C198.587 124.58 198.422 126.785 198.422 129.395C198.422 132.095 198.587 134.36 198.917 136.19C199.277 138.02 199.982 139.49 201.032 140.6C202.112 141.71 203.672 142.265 205.712 142.265C207.722 142.265 209.252 141.71 210.302 140.6C211.382 139.49 212.087 138.02 212.417 136.19C212.777 134.36 212.957 132.095 212.957 129.395ZM222.629 129.395C222.629 124.235 223.469 120.215 225.149 117.335C226.829 114.425 229.769 112.97 233.969 112.97C238.139 112.97 241.064 114.425 242.744 117.335C244.424 120.215 245.264 124.235 245.264 129.395C245.264 134.645 244.424 138.725 242.744 141.635C241.064 144.545 238.139 146 233.969 146C229.769 146 226.829 144.545 225.149 141.635C223.469 138.725 222.629 134.645 222.629 129.395ZM241.214 129.395C241.214 126.785 241.034 124.58 240.674 122.78C240.344 120.95 239.639 119.48 238.559 118.37C237.509 117.26 235.979 116.705 233.969 116.705C231.929 116.705 230.369 117.26 229.289 118.37C228.239 119.48 227.534 120.95 227.174 122.78C226.844 124.58 226.679 126.785 226.679 129.395C226.679 132.095 226.844 134.36 227.174 136.19C227.534 138.02 228.239 139.49 229.289 140.6C230.369 141.71 231.929 142.265 233.969 142.265C235.979 142.265 237.509 141.71 238.559 140.6C239.639 139.49 240.344 138.02 240.674 136.19C241.034 134.36 241.214 132.095 241.214 129.395Z" fill="black"/>
</svg>
