<svg width="260" height="260" viewBox="0 0 260 260" fill="none" xmlns="http://www.w3.org/2000/svg">
<circle cx="130" cy="130" r="130" fill="#EFCA08"/>
<path d="M33.42 104.4V96.93H50.34V162H42.06V104.4H33.42ZM64.4081 128.79C64.4081 118.47 66.0881 110.43 69.4481 104.67C72.8081 98.85 78.6881 95.94 87.0881 95.94C95.4281 95.94 101.278 98.85 104.638 104.67C107.998 110.43 109.678 118.47 109.678 128.79C109.678 139.29 107.998 147.45 104.638 153.27C101.278 159.09 95.4281 162 87.0881 162C78.6881 162 72.8081 159.09 69.4481 153.27C66.0881 147.45 64.4081 139.29 64.4081 128.79ZM101.578 128.79C101.578 123.57 101.218 119.16 100.498 115.56C99.8381 111.9 98.4281 108.96 96.2681 106.74C94.1681 104.52 91.1081 103.41 87.0881 103.41C83.0081 103.41 79.8881 104.52 77.7281 106.74C75.6281 108.96 74.2181 111.9 73.4981 115.56C72.8381 119.16 72.5081 123.57 72.5081 128.79C72.5081 134.19 72.8381 138.72 73.4981 142.38C74.2181 146.04 75.6281 148.98 77.7281 151.2C79.8881 153.42 83.0081 154.53 87.0881 154.53C91.1081 154.53 94.1681 153.42 96.2681 151.2C98.4281 148.98 99.8381 146.04 100.498 142.38C101.218 138.72 101.578 134.19 101.578 128.79ZM120.922 128.79C120.922 118.47 122.602 110.43 125.962 104.67C129.322 98.85 135.202 95.94 143.602 95.94C151.942 95.94 157.792 98.85 161.152 104.67C164.512 110.43 166.192 118.47 166.192 128.79C166.192 139.29 164.512 147.45 161.152 153.27C157.792 159.09 151.942 162 143.602 162C135.202 162 129.322 159.09 125.962 153.27C122.602 147.45 120.922 139.29 120.922 128.79ZM158.092 128.79C158.092 123.57 157.732 119.16 157.012 115.56C156.352 111.9 154.942 108.96 152.782 106.74C150.682 104.52 147.622 103.41 143.602 103.41C139.522 103.41 136.402 104.52 134.242 106.74C132.142 108.96 130.732 111.9 130.012 115.56C129.352 119.16 129.022 123.57 129.022 128.79C129.022 134.19 129.352 138.72 130.012 142.38C130.732 146.04 132.142 148.98 134.242 151.2C136.402 153.42 139.522 154.53 143.602 154.53C147.622 154.53 150.682 153.42 152.782 151.2C154.942 148.98 156.352 146.04 157.012 142.38C157.732 138.72 158.092 134.19 158.092 128.79ZM177.435 128.79C177.435 118.47 179.115 110.43 182.475 104.67C185.835 98.85 191.715 95.94 200.115 95.94C208.455 95.94 214.305 98.85 217.665 104.67C221.025 110.43 222.705 118.47 222.705 128.79C222.705 139.29 221.025 147.45 217.665 153.27C214.305 159.09 208.455 162 200.115 162C191.715 162 185.835 159.09 182.475 153.27C179.115 147.45 177.435 139.29 177.435 128.79ZM214.605 128.79C214.605 123.57 214.245 119.16 213.525 115.56C212.865 111.9 211.455 108.96 209.295 106.74C207.195 104.52 204.135 103.41 200.115 103.41C196.035 103.41 192.915 104.52 190.755 106.74C188.655 108.96 187.245 111.9 186.525 115.56C185.865 119.16 185.535 123.57 185.535 128.79C185.535 134.19 185.865 138.72 186.525 142.38C187.245 146.04 188.655 148.98 190.755 151.2C192.915 153.42 196.035 154.53 200.115 154.53C204.135 154.53 207.195 153.42 209.295 151.2C211.455 148.98 212.865 146.04 213.525 142.38C214.245 138.72 214.605 134.19 214.605 128.79Z" fill="black"/>
</svg>
