<svg width="260" height="260" viewBox="0 0 260 260" fill="none" xmlns="http://www.w3.org/2000/svg">
<circle cx="130" cy="130" r="130" fill="#00A6A6"/>
<path d="M77.56 95.2V85.24H100.12V172H89.08V95.2H77.56ZM118.878 127.72C118.878 113.96 121.118 103.24 125.598 95.56C130.078 87.8 137.918 83.92 149.118 83.92C160.238 83.92 168.038 87.8 172.518 95.56C176.997 103.24 179.237 113.96 179.237 127.72C179.237 141.72 176.997 152.6 172.518 160.36C168.038 168.12 160.238 172 149.118 172C137.918 172 130.078 168.12 125.598 160.36C121.118 152.6 118.878 141.72 118.878 127.72ZM168.438 127.72C168.438 120.76 167.958 114.88 166.998 110.08C166.118 105.2 164.238 101.28 161.358 98.32C158.558 95.36 154.478 93.88 149.118 93.88C143.678 93.88 139.518 95.36 136.638 98.32C133.838 101.28 131.958 105.2 130.998 110.08C130.118 114.88 129.678 120.76 129.678 127.72C129.678 134.92 130.118 140.96 130.998 145.84C131.958 150.72 133.838 154.64 136.638 157.6C139.518 160.56 143.678 162.04 149.118 162.04C154.478 162.04 158.558 160.56 161.358 157.6C164.238 154.64 166.118 150.72 166.998 145.84C167.958 140.96 168.438 134.92 168.438 127.72Z" fill="black"/>
</svg>
