<svg width="260" height="260" viewBox="0 0 260 260" fill="none" xmlns="http://www.w3.org/2000/svg">
<circle cx="130" cy="130" r="130" fill="#EFCA08"/>
<path d="M83.53 98.16H44.92V123.24C46.6067 120.893 49.1 118.987 52.4 117.52C55.7 115.98 59.2567 115.21 63.07 115.21C69.1567 115.21 74.1067 116.493 77.92 119.06C81.7333 121.553 84.4467 124.817 86.06 128.85C87.7467 132.81 88.59 137.027 88.59 141.5C88.59 146.78 87.6 151.51 85.62 155.69C83.64 159.87 80.5967 163.17 76.49 165.59C72.4567 168.01 67.4333 169.22 61.42 169.22C53.72 169.22 47.4867 167.24 42.72 163.28C37.9533 159.32 35.0567 154.04 34.03 147.44H43.82C44.7733 151.62 46.79 154.883 49.87 157.23C52.95 159.577 56.8367 160.75 61.53 160.75C67.3233 160.75 71.6867 159.027 74.62 155.58C77.5533 152.06 79.02 147.44 79.02 141.72C79.02 136 77.5533 131.6 74.62 128.52C71.6867 125.367 67.36 123.79 61.64 123.79C57.7533 123.79 54.3433 124.743 51.41 126.65C48.55 128.483 46.46 131.013 45.14 134.24H35.68V89.36H83.53V98.16ZM101.892 128.41C101.892 115.797 103.946 105.97 108.052 98.93C112.159 91.8167 119.346 88.26 129.612 88.26C139.806 88.26 146.956 91.8167 151.062 98.93C155.169 105.97 157.222 115.797 157.222 128.41C157.222 141.243 155.169 151.217 151.062 158.33C146.956 165.443 139.806 169 129.612 169C119.346 169 112.159 165.443 108.052 158.33C103.946 151.217 101.892 141.243 101.892 128.41ZM147.322 128.41C147.322 122.03 146.882 116.64 146.002 112.24C145.196 107.767 143.472 104.173 140.832 101.46C138.266 98.7467 134.526 97.39 129.612 97.39C124.626 97.39 120.812 98.7467 118.172 101.46C115.606 104.173 113.882 107.767 113.002 112.24C112.196 116.64 111.792 122.03 111.792 128.41C111.792 135.01 112.196 140.547 113.002 145.02C113.882 149.493 115.606 153.087 118.172 155.8C120.812 158.513 124.626 159.87 129.612 159.87C134.526 159.87 138.266 158.513 140.832 155.8C143.472 153.087 145.196 149.493 146.002 145.02C146.882 140.547 147.322 135.01 147.322 128.41ZM170.965 128.41C170.965 115.797 173.018 105.97 177.125 98.93C181.231 91.8167 188.418 88.26 198.685 88.26C208.878 88.26 216.028 91.8167 220.135 98.93C224.241 105.97 226.295 115.797 226.295 128.41C226.295 141.243 224.241 151.217 220.135 158.33C216.028 165.443 208.878 169 198.685 169C188.418 169 181.231 165.443 177.125 158.33C173.018 151.217 170.965 141.243 170.965 128.41ZM216.395 128.41C216.395 122.03 215.955 116.64 215.075 112.24C214.268 107.767 212.545 104.173 209.905 101.46C207.338 98.7467 203.598 97.39 198.685 97.39C193.698 97.39 189.885 98.7467 187.245 101.46C184.678 104.173 182.955 107.767 182.075 112.24C181.268 116.64 180.865 122.03 180.865 128.41C180.865 135.01 181.268 140.547 182.075 145.02C182.955 149.493 184.678 153.087 187.245 155.8C189.885 158.513 193.698 159.87 198.685 159.87C203.598 159.87 207.338 158.513 209.905 155.8C212.545 153.087 214.268 149.493 215.075 145.02C215.955 140.547 216.395 135.01 216.395 128.41Z" fill="black"/>
</svg>
