<svg width="260" height="260" viewBox="0 0 260 260" fill="none" xmlns="http://www.w3.org/2000/svg">
<circle cx="130" cy="130" r="130" fill="#00A6A6"/>
<path d="M119.76 94.72H77.64V122.08C79.48 119.52 82.2 117.44 85.8 115.84C89.4 114.16 93.28 113.32 97.44 113.32C104.08 113.32 109.48 114.72 113.64 117.52C117.8 120.24 120.76 123.8 122.52 128.2C124.36 132.52 125.28 137.12 125.28 142C125.28 147.76 124.2 152.92 122.04 157.48C119.88 162.04 116.56 165.64 112.08 168.28C107.68 170.92 102.2 172.24 95.64 172.24C87.24 172.24 80.44 170.08 75.24 165.76C70.04 161.44 66.88 155.68 65.76 148.48H76.44C77.48 153.04 79.68 156.6 83.04 159.16C86.4 161.72 90.64 163 95.76 163C102.08 163 106.84 161.12 110.04 157.36C113.24 153.52 114.84 148.48 114.84 142.24C114.84 136 113.24 131.2 110.04 127.84C106.84 124.4 102.12 122.68 95.88 122.68C91.64 122.68 87.92 123.72 84.72 125.8C81.6 127.8 79.32 130.56 77.88 134.08H67.56V85.12H119.76V94.72ZM139.792 127.72C139.792 113.96 142.032 103.24 146.512 95.56C150.992 87.8 158.832 83.92 170.032 83.92C181.152 83.92 188.952 87.8 193.432 95.56C197.912 103.24 200.152 113.96 200.152 127.72C200.152 141.72 197.912 152.6 193.432 160.36C188.952 168.12 181.152 172 170.032 172C158.832 172 150.992 168.12 146.512 160.36C142.032 152.6 139.792 141.72 139.792 127.72ZM189.352 127.72C189.352 120.76 188.872 114.88 187.912 110.08C187.032 105.2 185.152 101.28 182.272 98.32C179.472 95.36 175.392 93.88 170.032 93.88C164.592 93.88 160.432 95.36 157.552 98.32C154.752 101.28 152.872 105.2 151.912 110.08C151.032 114.88 150.592 120.76 150.592 127.72C150.592 134.92 151.032 140.96 151.912 145.84C152.872 150.72 154.752 154.64 157.552 157.6C160.432 160.56 164.592 162.04 170.032 162.04C175.392 162.04 179.472 160.56 182.272 157.6C185.152 154.64 187.032 150.72 187.912 145.84C188.872 140.96 189.352 134.92 189.352 127.72Z" fill="black"/>
</svg>
