<svg width="260" height="260" viewBox="0 0 260 260" fill="none" xmlns="http://www.w3.org/2000/svg">
<circle cx="130" cy="130" r="130" fill="#EFCA08"/>
<path d="M47.18 98.6V89.47H67.86V169H57.74V98.6H47.18ZM85.0544 128.41C85.0544 115.797 87.1077 105.97 91.2144 98.93C95.321 91.8167 102.508 88.26 112.774 88.26C122.968 88.26 130.118 91.8167 134.224 98.93C138.331 105.97 140.384 115.797 140.384 128.41C140.384 141.243 138.331 151.217 134.224 158.33C130.118 165.443 122.968 169 112.774 169C102.508 169 95.321 165.443 91.2144 158.33C87.1077 151.217 85.0544 141.243 85.0544 128.41ZM130.484 128.41C130.484 122.03 130.044 116.64 129.164 112.24C128.358 107.767 126.634 104.173 123.994 101.46C121.428 98.7467 117.688 97.39 112.774 97.39C107.788 97.39 103.974 98.7467 101.334 101.46C98.7677 104.173 97.0444 107.767 96.1644 112.24C95.3577 116.64 94.9544 122.03 94.9544 128.41C94.9544 135.01 95.3577 140.547 96.1644 145.02C97.0444 149.493 98.7677 153.087 101.334 155.8C103.974 158.513 107.788 159.87 112.774 159.87C117.688 159.87 121.428 158.513 123.994 155.8C126.634 153.087 128.358 149.493 129.164 145.02C130.044 140.547 130.484 135.01 130.484 128.41ZM154.127 128.41C154.127 115.797 156.18 105.97 160.287 98.93C164.393 91.8167 171.58 88.26 181.847 88.26C192.04 88.26 199.19 91.8167 203.297 98.93C207.403 105.97 209.457 115.797 209.457 128.41C209.457 141.243 207.403 151.217 203.297 158.33C199.19 165.443 192.04 169 181.847 169C171.58 169 164.393 165.443 160.287 158.33C156.18 151.217 154.127 141.243 154.127 128.41ZM199.557 128.41C199.557 122.03 199.117 116.64 198.237 112.24C197.43 107.767 195.707 104.173 193.067 101.46C190.5 98.7467 186.76 97.39 181.847 97.39C176.86 97.39 173.047 98.7467 170.407 101.46C167.84 104.173 166.117 107.767 165.237 112.24C164.43 116.64 164.027 122.03 164.027 128.41C164.027 135.01 164.43 140.547 165.237 145.02C166.117 149.493 167.84 153.087 170.407 155.8C173.047 158.513 176.86 159.87 181.847 159.87C186.76 159.87 190.5 158.513 193.067 155.8C195.707 153.087 197.43 149.493 198.237 145.02C199.117 140.547 199.557 135.01 199.557 128.41Z" fill="black"/>
</svg>
